<svg xmlns="http://www.w3.org/2000/svg" width="1200" height="300" viewBox="0 0 1200 300" role="img" aria-label="3X-UI KIT: установка сервера одной командой"><title>3X-UI KIT: установка сервера одной командой</title>
<defs><clipPath id="r"><rect width="1200" height="300" rx="20"/></clipPath></defs>
<g clip-path="url(#r)"><rect width="1200" height="300" fill="#1a1411"/><path d="M60 0V300" stroke="#1d1713" stroke-width="2"/><path d="M156 0V300" stroke="#1d1713" stroke-width="2"/><path d="M252 0V300" stroke="#1d1713" stroke-width="2"/><path d="M348 0V300" stroke="#1d1713" stroke-width="2"/><path d="M444 0V300" stroke="#1d1713" stroke-width="2"/><path d="M540 0V300" stroke="#1d1713" stroke-width="2"/><path d="M636 0V300" stroke="#1d1713" stroke-width="2"/><path d="M732 0V300" stroke="#1d1713" stroke-width="2"/><path d="M828 0V300" stroke="#1d1713" stroke-width="2"/><path d="M924 0V300" stroke="#1d1713" stroke-width="2"/><path d="M1020 0V300" stroke="#1d1713" stroke-width="2"/><path d="M1116 0V300" stroke="#1d1713" stroke-width="2"/><rect y="268" width="1200" height="32" fill="#120e0c"/></g>
<rect x="1.5" y="1.5" width="1197" height="297" rx="19" fill="none" stroke="#15110F" stroke-width="3"/>
<g font-family="Rubik,'Arial Black','Helvetica Neue',Arial,system-ui,sans-serif" font-weight="900" font-size="66" letter-spacing="1">
<text x="80" y="104" fill="#15110F" stroke="#15110F" stroke-width="14" stroke-linejoin="round">3X-UI KIT</text>
<text x="80" y="104" fill="#FBF6EC" style="paint-order:stroke">3X-UI KIT</text></g>
<g font-family="Rubik,'Arial Black','Helvetica Neue',Arial,system-ui,sans-serif" font-weight="900" font-size="35" letter-spacing="1">
<text x="82" y="156" fill="#8A66C4" stroke="#15110F" stroke-width="10" stroke-linejoin="round" transform="translate(3 4)">УСТАНОВКА ОДНОЙ КОМАНДОЙ</text>
<text x="82" y="156" fill="#93E06F" stroke="#15110F" stroke-width="8" stroke-linejoin="round" style="paint-order:stroke">УСТАНОВКА ОДНОЙ КОМАНДОЙ</text></g>
<g><rect x="77" y="190" width="130" height="38" rx="10" fill="#15110F"/><rect x="74" y="186" width="130" height="38" rx="10" fill="#2C231D" stroke="#15110F" stroke-width="3"/><circle cx="91" cy="205" r="4.5" fill="#93E06F"/><text x="104" y="211" font-family="Rubik,'Arial Black','Helvetica Neue',Arial,system-ui,sans-serif" font-weight="800" font-size="16" fill="#FBF6EC">Порт 443</text></g><g><rect x="219" y="190" width="183" height="38" rx="10" fill="#15110F"/><rect x="216" y="186" width="183" height="38" rx="10" fill="#2C231D" stroke="#15110F" stroke-width="3"/><circle cx="233" cy="205" r="4.5" fill="#93E06F"/><text x="246" y="211" font-family="Rubik,'Arial Black','Helvetica Neue',Arial,system-ui,sans-serif" font-weight="800" font-size="16" fill="#FBF6EC">Одна подписка</text></g><g><rect x="414" y="190" width="205" height="38" rx="10" fill="#15110F"/><rect x="411" y="186" width="205" height="38" rx="10" fill="#2C231D" stroke="#15110F" stroke-width="3"/><circle cx="428" cy="205" r="4.5" fill="#93E06F"/><text x="441" y="211" font-family="Rubik,'Arial Black','Helvetica Neue',Arial,system-ui,sans-serif" font-weight="800" font-size="16" fill="#FBF6EC">С доменом и без</text></g><g><rect x="77" y="238" width="141" height="38" rx="10" fill="#15110F"/><rect x="74" y="234" width="141" height="38" rx="10" fill="#2C231D" stroke="#15110F" stroke-width="3"/><circle cx="91" cy="253" r="4.5" fill="#93E06F"/><text x="104" y="259" font-family="Rubik,'Arial Black','Helvetica Neue',Arial,system-ui,sans-serif" font-weight="800" font-size="16" fill="#FBF6EC">kit check</text></g><g><rect x="230" y="238" width="194" height="38" rx="10" fill="#15110F"/><rect x="227" y="234" width="194" height="38" rx="10" fill="#2C231D" stroke="#15110F" stroke-width="3"/><circle cx="244" cy="253" r="4.5" fill="#93E06F"/><text x="257" y="259" font-family="Rubik,'Arial Black','Helvetica Neue',Arial,system-ui,sans-serif" font-weight="800" font-size="16" fill="#FBF6EC">Автообновление</text></g><g><rect x="436" y="238" width="236" height="38" rx="10" fill="#15110F"/><rect x="433" y="234" width="236" height="38" rx="10" fill="#2C231D" stroke="#15110F" stroke-width="3"/><circle cx="450" cy="253" r="4.5" fill="#93E06F"/><text x="463" y="259" font-family="Rubik,'Arial Black','Helvetica Neue',Arial,system-ui,sans-serif" font-weight="800" font-size="16" fill="#FBF6EC">Keenetic и OpenWrt</text></g>
<g transform="rotate(2 940 110)"><rect x="783" y="40" width="360" height="140" rx="14" fill="#15110F"/>
<rect x="778" y="34" width="360" height="140" rx="14" fill="#221B17" stroke="#15110F" stroke-width="4"/>
<circle cx="800" cy="54" r="6" fill="#ff5f57"/><circle cx="820" cy="54" r="6" fill="#febc2e"/><circle cx="840" cy="54" r="6" fill="#28c840"/>
<text x="798" y="92" font-family="'JetBrains Mono',ui-monospace,SFMono-Regular,Menlo,Consolas,monospace" font-weight="700" font-size="14" fill="#CBBFA9">$ bash 3x-ui.sh</text>
<text x="798" y="116" font-family="'JetBrains Mono',ui-monospace,SFMono-Regular,Menlo,Consolas,monospace" font-weight="700" font-size="13" fill="#CBBFA9">==&gt; Ставлю 3X-UI…</text>
<text x="798" y="142" font-family="'JetBrains Mono',ui-monospace,SFMono-Regular,Menlo,Consolas,monospace" font-weight="800" font-size="14" fill="#93E06F">Готово! 3X-UI работает.</text>
<text x="798" y="164" font-family="'JetBrains Mono',ui-monospace,SFMono-Regular,Menlo,Consolas,monospace" font-weight="700" font-size="13" fill="#CBBFA9">https://IP/sub/…</text></g>
<g transform="rotate(-4 1000 222)"><rect x="868" y="206" width="262" height="52" rx="6" fill="#15110F" transform="translate(4 5)"/>
<rect x="868" y="206" width="262" height="52" rx="6" fill="#F2E8D2" stroke="#15110F" stroke-width="3"/>
<circle cx="881" cy="219" r="3.2" fill="#15110F"/><circle cx="1117" cy="219" r="3.2" fill="#15110F"/>
<text x="999" y="241" text-anchor="middle" font-family="Rubik,'Arial Black','Helvetica Neue',Arial,system-ui,sans-serif" font-weight="900" font-size="26" fill="#15110F" letter-spacing=".5">11 ПРОТОКОЛОВ</text></g>
<text x="1176" y="290" text-anchor="end" font-family="Rubik,'Arial Black','Helvetica Neue',Arial,system-ui,sans-serif" font-size="13" font-weight="500" fill="#CBBFA9" font-style="italic">it's not Kubrick. it's just a VPN.</text>
</svg>
